<?xml version="1.0" encoding="utf-8"?>
<!-- Generator: Adobe Illustrator 16.0.0, SVG Export Plug-In . SVG Version: 6.00 Build 0)  -->
<!DOCTYPE svg PUBLIC "-//W3C//DTD SVG 1.1//EN" "http://www.w3.org/Graphics/SVG/1.1/DTD/svg11.dtd">
<svg version="1.1" id="Layer_1" xmlns="http://www.w3.org/2000/svg" xmlns:xlink="http://www.w3.org/1999/xlink" x="0px" y="0px"
	 width="42px" height="42px" viewBox="0 0 42 42" enable-background="new 0 0 42 42" xml:space="preserve">
<g>
	<g>
		<path fill="#FFFFFF" d="M33.57,16.986h1.246v17.816c0,2.371-1.956,4.301-4.361,4.301h-8.099c-1.185,0-2.26-0.47-3.046-1.229
			h12.612l-1.986-6.364c-0.468-1.5-1.564-2.727-2.992-3.384c1.419-1.924,2.267-4.283,2.267-6.839v-1.844
			c0-0.814-0.542-1.499-1.287-1.742v-5.629c0-5.737-4.732-10.404-10.551-10.404c-5.817,0-10.551,4.667-10.551,10.404v5.63
			c-0.745,0.243-1.286,0.928-1.286,1.742v1.844c0,2.556,0.847,4.915,2.266,6.84c-1.428,0.656-2.524,1.883-2.993,3.384l-1.985,6.363
			h14.875c1.008,1.48,2.72,2.458,4.659,2.458h8.099c3.091,0,5.607-2.48,5.607-5.53V16.986h1.246V13.3H33.57V16.986z M27.34,18.83
			c0.344,0,0.623,0.275,0.623,0.614v1.844c0,2.41-0.841,4.628-2.238,6.398l-3.991-1.313v-1.566c1.228-0.875,2.174-2.105,2.686-3.539
			c1.416-0.087,2.582-1.1,2.858-2.438H27.34z M17.372,24.973c-3.436,0-6.229-2.756-6.229-6.143V13.3h2.735
			c2.8,0,5.528-0.974,7.679-2.741l0.072-0.059c1.276,1.782,1.974,3.932,1.974,6.12v2.21C23.603,22.217,20.808,24.973,17.372,24.973z
			 M20.487,25.522v1.087c-0.318,0.381-1.357,1.435-3.115,1.435c-1.763,0-2.797-1.052-3.115-1.435v-1.087
			c0.95,0.432,2.003,0.68,3.115,0.68C18.485,26.202,19.538,25.954,20.487,25.522z M17.372,29.273c2.084,0,3.395-1.13,3.95-1.74
			l3.514,1.155c-1.917,1.878-4.554,3.042-7.464,3.042c-2.909,0-5.547-1.164-7.464-3.042l3.513-1.155
			C13.978,28.144,15.288,29.273,17.372,29.273z M24.842,16.483c0.728,0.253,1.253,0.931,1.253,1.732
			c0,0.836-0.571,1.536-1.346,1.761c0.06-0.375,0.1-0.756,0.1-1.146v-2.21C24.849,16.574,24.843,16.529,24.842,16.483z
			 M7.986,12.072c0-5.104,4.211-9.256,9.386-9.256c5.176,0,9.386,4.152,9.386,9.256v4.371c-0.469-0.646-1.182-1.108-2.008-1.247
			c-0.27-2.17-1.138-4.249-2.53-5.965l-0.396-0.49l-1.064,0.874c-1.928,1.585-4.372,2.458-6.881,2.458H9.896v3.133
			c-0.785,0.158-1.46,0.61-1.91,1.231V12.072z M9.995,19.976C9.22,19.751,8.65,19.051,8.65,18.215c0-0.8,0.522-1.476,1.246-1.729
			v2.344C9.896,19.22,9.937,19.601,9.995,19.976z M6.781,21.287v-1.844c0-0.338,0.279-0.614,0.623-0.614h0.063
			c0.276,1.338,1.442,2.35,2.858,2.438c0.511,1.435,1.458,2.665,2.686,3.539v1.566L9.02,27.686
			C7.623,25.915,6.781,23.697,6.781,21.287z M9.979,36.646l0.536-4.224l-1.236-0.153l-0.555,4.377H4.509L6,31.872
			c0.395-1.269,1.372-2.281,2.624-2.751c1.769,1.919,4.17,3.251,6.88,3.678v2.618h1.283c0.048,0.427,0.149,0.837,0.29,1.229H9.979z
			 M17.995,34.188h-1.246v-1.259c0.208,0.01,0.412,0.03,0.623,0.03c0.21,0,0.416-0.021,0.623-0.03V34.188z M18.422,36.646
			c-0.185-0.382-0.313-0.795-0.377-1.229h1.196v-2.618c2.71-0.427,5.111-1.759,6.88-3.678c1.253,0.47,2.229,1.482,2.624,2.751
			l1.489,4.773h-4.213l-0.556-4.377l-1.235,0.153l0.535,4.224H18.422z M34.816,14.529h1.246v1.228h-1.246V14.529z M37.309,6.542V4.7
			H33.57v1.843h-1.869v3.686h1.869v1.843h3.738v-1.843h1.869V6.542H37.309z M37.932,9h-1.869v1.843h-1.246V9h-1.869V7.771h1.869
			V5.928h1.246v1.843h1.869V9z"/>
	</g>
</g>
</svg>
