<?xml version="1.0" encoding="utf-8"?>
<!-- Generator: Adobe Illustrator 16.0.0, SVG Export Plug-In . SVG Version: 6.00 Build 0)  -->
<!DOCTYPE svg PUBLIC "-//W3C//DTD SVG 1.1//EN" "http://www.w3.org/Graphics/SVG/1.1/DTD/svg11.dtd">
<svg version="1.1" id="Layer_1" xmlns="http://www.w3.org/2000/svg" xmlns:xlink="http://www.w3.org/1999/xlink" x="0px" y="0px"
	 width="42px" height="42px" viewBox="0 0 42 42" enable-background="new 0 0 42 42" xml:space="preserve">
<g>
	<path fill="#FFFFFF" d="M31.802,1.829H10.198c-1.634,0-2.919,1.36-2.919,3.092v32.157c0,1.732,1.285,3.093,2.919,3.093h21.604
		c1.636,0,2.919-1.36,2.919-3.093V4.921C34.721,3.189,33.438,1.829,31.802,1.829z M14.285,3.065h13.43v2.598
		c0,0.247-0.232,0.494-0.467,0.494H14.752c-0.233,0-0.467-0.247-0.467-0.494V3.065z M14.752,7.394h12.496
		c0.713,0,1.343-0.537,1.555-1.236h2.415v29.066H10.782V6.158h2.417C13.41,6.857,14.039,7.394,14.752,7.394z M33.553,37.078
		c0,1.053-0.758,1.855-1.751,1.855H10.198c-0.992,0-1.751-0.804-1.751-1.855V4.921c0-1.052,0.759-1.856,1.751-1.856h2.92v1.856
		H9.614V36.46h22.771V4.921h-3.502V3.065h2.918c0.993,0,1.751,0.804,1.751,1.856L33.553,37.078L33.553,37.078z M18.373,8.631H11.95
		v4.33h6.423V8.631z M17.205,11.723h-4.087V9.868h4.087V11.723z M30.05,16.052h-18.1v1.237h18.1V16.052z M25.964,21H11.95v1.236
		h14.014V21z M28.299,18.527H11.95v1.236h16.349V18.527z M28.299,23.475H11.95v1.236h16.349V23.475z M27.131,31.884l-0.76-0.804
		l-0.816,0.865l1.576,1.671l2.744-2.907l-0.818-0.866L27.131,31.884z"/>
</g>
</svg>
