<?xml version="1.0" encoding="utf-8"?>
<!-- Generator: Adobe Illustrator 16.0.0, SVG Export Plug-In . SVG Version: 6.00 Build 0)  -->
<!DOCTYPE svg PUBLIC "-//W3C//DTD SVG 1.1//EN" "http://www.w3.org/Graphics/SVG/1.1/DTD/svg11.dtd">
<svg version="1.1" id="Layer_1" xmlns="http://www.w3.org/2000/svg" xmlns:xlink="http://www.w3.org/1999/xlink" x="0px" y="0px"
	 width="42px" height="42px" viewBox="0 0 42 42" enable-background="new 0 0 42 42" xml:space="preserve">
<g>
	<path fill="#FFFFFF" d="M37.988,3.462c-10.896,0.017-21.793,0.01-32.69,0.01c-0.107,0-0.216,0.008-0.323,0
		c-0.95-0.073-1.589,0.342-1.894,1.29c0,8.442,0,16.884,0,25.326c0.287,0.839,0.82,1.289,1.717,1.289
		c11.135-0.009,22.269-0.007,33.403-0.012c0.189,0,0.386-0.012,0.568-0.057c0.623-0.156,0.939-0.637,1.146-1.222
		c0-8.44,0-16.883,0-25.326C39.607,3.795,38.949,3.461,37.988,3.462z M38.493,29.105c-0.002,0.791-0.005,0.797-0.757,0.797
		c-8.176,0.002-16.354,0-24.531,0c-2.709,0.002-5.419,0.002-8.129,0.002c-0.177,0-0.354-0.016-0.549-0.023c0-1.425,0-2.814,0-4.23
		c11.308,0,22.609,0,33.967,0C38.494,26.818,38.495,27.963,38.493,29.105z M38.492,23.793c0,0.109-0.01,0.219-0.016,0.35
		c-11.324,0-22.625,0-33.954,0c-0.007-0.142-0.018-0.263-0.018-0.383c-0.001-6.102-0.001-12.202,0-18.303
		c0-0.519,0.002-0.521,0.52-0.521c11.007-0.002,22.014,0,33.021-0.01c0.374,0,0.455,0.122,0.455,0.491
		C38.491,11.542,38.493,17.668,38.492,23.793z M29.807,36.128c-0.502-0.021-1.008-0.009-1.511-0.011c-0.174,0-0.351,0-0.547,0
		c0-1.042,0.002-2.024-0.001-3.006c-0.001-0.149-0.007-0.301-0.038-0.444c-0.08-0.379-0.335-0.587-0.687-0.583
		c-0.342,0.004-0.604,0.229-0.676,0.602c-0.027,0.145-0.023,0.297-0.024,0.445c-0.003,0.979-0.001,1.961-0.001,2.963
		c-3.223,0-6.406,0-9.646,0c0-0.164,0-0.3,0-0.435c0.001-0.909,0.006-1.818,0-2.728c-0.004-0.601-0.387-0.947-0.888-0.826
		c-0.341,0.084-0.534,0.379-0.537,0.863c-0.006,0.909-0.001,1.818-0.002,2.727c0,0.132-0.012,0.263-0.019,0.422
		c-0.407,0-0.776-0.002-1.147,0c-0.323,0.003-0.648-0.012-0.969,0.019c-0.366,0.033-0.611,0.335-0.614,0.703
		c-0.003,0.365,0.246,0.667,0.604,0.72c0.13,0.02,0.263,0.017,0.395,0.017c5.335,0.001,10.67,0.001,16.005,0.001
		c0.096,0,0.191,0.002,0.287-0.006c0.43-0.031,0.712-0.327,0.706-0.734C30.491,36.439,30.223,36.145,29.807,36.128z M31.779,8.647
		c-0.924-0.004-1.846-0.003-2.77,0c-0.535,0.002-0.867,0.278-0.877,0.721c-0.009,0.44,0.323,0.738,0.854,0.751
		c0.346,0.01,0.689,0.002,1.035,0.002c0.012,0.028,0.021,0.057,0.033,0.086c-1.111,1.103-2.226,2.206-3.35,3.321
		c-0.659-0.652-1.291-1.28-1.924-1.905c-0.537-0.533-0.832-0.529-1.377,0.011c-1.402,1.394-2.807,2.787-4.21,4.179
		c-0.094,0.094-0.19,0.185-0.304,0.294c-0.667-0.659-1.314-1.302-1.964-1.942c-0.469-0.462-0.804-0.465-1.271-0.003
		c-1.622,1.606-3.242,3.213-4.861,4.822c-0.112,0.111-0.223,0.23-0.306,0.364c-0.174,0.282-0.126,0.667,0.108,0.886
		c0.247,0.231,0.53,0.292,0.826,0.11c0.131-0.082,0.247-0.195,0.359-0.307c1.266-1.253,2.53-2.51,3.795-3.765
		c0.232-0.231,0.465-0.459,0.714-0.705c0.65,0.646,1.281,1.274,1.913,1.901c0.54,0.532,0.843,0.53,1.38-0.002
		c1.412-1.402,2.824-2.802,4.237-4.203c0.092-0.091,0.188-0.177,0.291-0.27c0.656,0.651,1.289,1.278,1.921,1.905
		c0.516,0.512,0.836,0.512,1.351,0c1.18-1.17,2.355-2.339,3.534-3.508c0.078-0.077,0.161-0.147,0.291-0.267
		c0,0.452-0.004,0.813,0.001,1.172c0.007,0.536,0.271,0.857,0.698,0.862c0.428,0.004,0.709-0.308,0.717-0.844
		c0.013-0.934,0.013-1.867,0.003-2.801C32.623,8.928,32.343,8.65,31.779,8.647z M21.51,28.904c0.614-0.004,1.086-0.5,1.086-1.141
		c-0.003-0.641-0.478-1.139-1.088-1.14c-0.629,0-1.109,0.505-1.104,1.163C20.408,28.421,20.891,28.909,21.51,28.904z"/>
</g>
</svg>
