<?xml version="1.0" encoding="utf-8"?>
<!-- Generator: Adobe Illustrator 16.0.0, SVG Export Plug-In . SVG Version: 6.00 Build 0)  -->
<!DOCTYPE svg PUBLIC "-//W3C//DTD SVG 1.1//EN" "http://www.w3.org/Graphics/SVG/1.1/DTD/svg11.dtd">
<svg version="1.1" id="Layer_1" xmlns="http://www.w3.org/2000/svg" xmlns:xlink="http://www.w3.org/1999/xlink" x="0px" y="0px"
	 width="42px" height="42px" viewBox="0 0 42 42" enable-background="new 0 0 42 42" xml:space="preserve">
<path fill="#FFFFFF" d="M18.377,30.518h6.074c0.336,0,0.607-0.271,0.607-0.606c0-0.334-0.271-0.606-0.607-0.606h-6.074
	c-0.336,0-0.607,0.272-0.607,0.606S18.041,30.518,18.377,30.518L18.377,30.518z M18.377,26.877h9.719
	c0.336,0,0.607-0.273,0.607-0.607s-0.271-0.605-0.607-0.605h-9.719c-0.336,0-0.607,0.271-0.607,0.605S18.041,26.877,18.377,26.877
	L18.377,26.877z M17.77,22.629c0,0.335,0.271,0.605,0.607,0.605h10.934c0.336,0,0.608-0.271,0.608-0.605s-0.272-0.607-0.608-0.607
	H18.377C18.041,22.021,17.77,22.294,17.77,22.629L17.77,22.629z M18.377,19.595h8.505c0.335,0,0.606-0.273,0.606-0.607
	c0-0.335-0.271-0.607-0.606-0.607h-8.505c-0.336,0-0.607,0.272-0.607,0.607C17.77,19.322,18.041,19.595,18.377,19.595L18.377,19.595
	z M18.377,15.954h9.719c0.336,0,0.607-0.272,0.607-0.607s-0.271-0.607-0.607-0.607h-9.719c-0.336,0-0.607,0.272-0.607,0.607
	S18.041,15.954,18.377,15.954L18.377,15.954z M14.732,29.303h-1.215c-0.336,0-0.607,0.273-0.607,0.607
	c0,0.335,0.271,0.605,0.607,0.605h1.215c0.336,0,0.607-0.271,0.607-0.605C15.34,29.576,15.069,29.303,14.732,29.303L14.732,29.303z
	 M14.732,25.663h-1.215c-0.336,0-0.607,0.271-0.607,0.606c0,0.334,0.271,0.606,0.607,0.606h1.215c0.336,0,0.607-0.272,0.607-0.606
	C15.34,25.936,15.069,25.663,14.732,25.663L14.732,25.663z M14.732,22.021h-1.215c-0.336,0-0.607,0.271-0.607,0.606
	s0.271,0.606,0.607,0.606h1.215c0.336,0,0.607-0.271,0.607-0.606S15.069,22.021,14.732,22.021L14.732,22.021z M14.732,18.38h-1.215
	c-0.336,0-0.607,0.272-0.607,0.607c0,0.334,0.271,0.607,0.607,0.607h1.215c0.336,0,0.607-0.273,0.607-0.607
	C15.34,18.652,15.069,18.38,14.732,18.38L14.732,18.38z M13.518,15.954h1.215c0.336,0,0.607-0.272,0.607-0.607
	s-0.271-0.607-0.607-0.607h-1.215c-0.336,0-0.607,0.272-0.607,0.607S13.182,15.954,13.518,15.954L13.518,15.954z M15.34,8.672
	h12.148V6.244h-3.098c-0.289,0-0.537-0.204-0.595-0.486c-0.229-1.125-1.229-1.941-2.382-1.941c-1.151,0-2.152,0.816-2.38,1.941
	c-0.058,0.282-0.306,0.486-0.595,0.486H15.34V8.672z M14.125,9.278V5.637c0-0.334,0.272-0.607,0.608-0.607h3.245
	c0.508-1.431,1.881-2.427,3.437-2.427c1.556,0,2.931,0.996,3.437,2.427h3.246c0.336,0,0.606,0.273,0.606,0.607v3.641
	c0,0.335-0.271,0.607-0.606,0.607H14.732C14.396,9.885,14.125,9.613,14.125,9.278L14.125,9.278z M21.414,5.03
	c-0.67,0-1.215,0.544-1.215,1.214s0.545,1.214,1.215,1.214s1.215-0.544,1.215-1.214S22.084,5.03,21.414,5.03L21.414,5.03z
	 M30.525,36.585c0.154,0,0.312-0.06,0.43-0.178l3.645-3.64c0.114-0.115,0.18-0.271,0.18-0.432V8.064
	c0-0.334-0.272-0.606-0.608-0.606h-3.646c-0.336,0-0.605,0.272-0.605,0.606c0,0.335,0.271,0.608,0.605,0.608h3.037v23.415
	l-3.465,3.463c-0.238,0.237-0.238,0.62,0,0.857C30.215,36.525,30.37,36.585,30.525,36.585L30.525,36.585z M12.302,7.458H8.658
	c-0.336,0-0.608,0.272-0.608,0.606v26.094c0,1.339,1.09,2.427,2.43,2.427h17.616c0.336,0,0.606-0.271,0.606-0.604v-3.644
	c0-0.274,0.271-0.606,0.606-0.606h2.432c0.335,0,0.605-0.271,0.605-0.605s-0.271-0.607-0.605-0.607h-2.432
	c-0.97,0-1.822,0.853-1.822,1.82v3.035H10.48c-0.67,0-1.215-0.545-1.215-1.214V8.672h3.037c0.336,0,0.608-0.273,0.608-0.608
	C12.911,7.73,12.639,7.458,12.302,7.458L12.302,7.458z M37.207,8.064V35.98c0,1.559-1.477,3.033-3.037,3.033H8.658
	c-1.562,0-3.037-1.476-3.037-3.033V8.064c0-1.559,1.476-3.034,3.037-3.034h3.644c0.336,0,0.608,0.273,0.608,0.607
	c0,0.335-0.272,0.607-0.608,0.607H8.658c-0.886,0-1.822,0.936-1.822,1.82V35.98c0,0.884,0.936,1.818,1.822,1.818H34.17
	c0.887,0,1.823-0.936,1.823-1.818V8.064c0-0.884-0.938-1.82-1.823-1.82h-3.645c-0.336,0-0.606-0.272-0.606-0.607
	c0-0.334,0.271-0.607,0.606-0.607h3.645C35.73,5.03,37.207,6.505,37.207,8.064L37.207,8.064z"/>
</svg>
