<?xml version="1.0" encoding="utf-8"?>
<!-- Generator: Adobe Illustrator 16.0.0, SVG Export Plug-In . SVG Version: 6.00 Build 0)  -->
<!DOCTYPE svg PUBLIC "-//W3C//DTD SVG 1.1//EN" "http://www.w3.org/Graphics/SVG/1.1/DTD/svg11.dtd">
<svg version="1.1" id="Layer_1" xmlns="http://www.w3.org/2000/svg" xmlns:xlink="http://www.w3.org/1999/xlink" x="0px" y="0px"
	 width="42px" height="42px" viewBox="0 0 42 42" enable-background="new 0 0 42 42" xml:space="preserve">
<g>
	<g>
		<path fill-rule="evenodd" clip-rule="evenodd" fill="#FFFFFF" d="M13.227,2.164c-0.404-0.114-0.822-0.183-1.233-0.273h-1.348
			c-0.412,0.09-0.83,0.158-1.234,0.272C6.271,3.047,4.139,5.87,4.136,9.15c-0.005,3.994-0.002,7.987-0.002,11.979
			c0,3.856,0.027,7.713-0.006,11.569c-0.033,3.956,2.916,6.979,6.346,7.347c0.058,0.007,0.114,0.041,0.172,0.063h1.348
			c0.303-0.063,0.607-0.117,0.909-0.188c3.255-0.764,5.573-3.63,5.596-6.963c0.02-2.748,0.006-5.497,0.006-8.246
			c0-5.211,0.011-10.423-0.005-15.634C18.488,5.837,16.335,3.036,13.227,2.164z M17.312,32.901
			c-0.014,3.414-2.781,6.085-6.198,6.015c-2.803-0.059-5.337-2.311-5.712-5.085c-0.04-0.295-0.074-0.594-0.074-0.891
			c-0.005-3.692-0.004-7.385-0.003-11.078c0-0.074,0.007-0.147,0.012-0.259h11.956c0.009,0.116,0.022,0.223,0.022,0.33
			C17.316,25.59,17.327,29.245,17.312,32.901z M17.315,20.395H5.342c-0.007-0.129-0.018-0.249-0.018-0.368
			c-0.001-3.631-0.002-7.262,0-10.893c0.003-3.518,2.912-6.252,6.423-6.042c2.73,0.163,5.124,2.386,5.49,5.114
			c0.057,0.417,0.072,0.842,0.073,1.263c0.006,3.532,0.004,7.063,0.004,10.595V20.395z M29.477,18.091
			c-5.433-0.029-9.743,4.177-9.765,9.527c-0.021,5.237,4.254,9.54,9.506,9.568c5.304,0.027,9.635-4.232,9.654-9.496
			C38.89,22.461,34.64,18.119,29.477,18.091z M23.585,33.768c-3.598-3.329-3.354-8.603-0.644-11.564
			c3.939,3.927,7.864,7.838,11.788,11.749C32.182,36.392,27.124,37.044,23.585,33.768z M35.647,33.054
			c-3.93-3.917-7.86-7.835-11.789-11.752c2.729-2.554,7.904-3.001,11.339,0.394C38.613,25.07,38.273,30.227,35.647,33.054z
			 M27.244,16.667c0.576,0.22,1.241,0.284,1.866,0.284c1.026,0.001,1.811-0.694,1.89-1.705c0.049-0.627,0.002-1.31-0.198-1.901
			c-1.013-2.988-3.028-5.155-5.741-6.709c-0.937-0.536-1.932-0.924-2.789-0.955c-1.694-0.036-2.59,0.819-2.549,2.263
			c0.015,0.501,0.095,1.028,0.276,1.492C21.344,12.9,23.76,15.335,27.244,16.667z M29.871,14.604
			c0.104,0.841-0.268,1.226-1.113,1.177c-0.392-0.021-0.791-0.107-1.164-0.231c-1.307-0.439-2.415-1.207-3.42-2.083
			c1.13-1.125,2.237-2.229,3.376-3.363C28.652,11.418,29.648,12.816,29.871,14.604z M21.736,6.882
			c0.549,0.019,1.118,0.106,1.637,0.284c1.182,0.405,2.193,1.114,3.135,1.923c0.046,0.039,0.08,0.091,0.089,0.101
			c-1.122,1.117-2.231,2.22-3.36,3.344c-1.056-1.215-1.977-2.541-2.302-4.193c-0.04-0.205-0.042-0.423-0.026-0.631
			C20.947,7.2,21.225,6.865,21.736,6.882z M11.609,37.601c-1.529-0.482-2.461-1.535-2.938-3.031
			c-0.334-1.047-0.379-2.123-0.353-3.021c0-0.646,0.004-1.106-0.001-1.567c-0.005-0.378-0.196-0.555-0.587-0.558
			c-0.39-0.003-0.598,0.178-0.599,0.547c-0.002,0.857-0.021,1.717,0.015,2.574c0.053,1.28,0.312,2.514,1.013,3.618
			c0.75,1.183,1.837,1.904,3.17,2.277c0.358,0.102,0.748-0.059,0.787-0.315C12.174,37.752,11.87,37.683,11.609,37.601z
			 M15.648,8.527c0.315,0,0.595-0.276,0.596-0.59c0.001-0.315-0.275-0.59-0.594-0.591c-0.325-0.001-0.586,0.261-0.587,0.589
			C15.064,8.265,15.322,8.526,15.648,8.527z M9.554,15.072c0.326,0.003,0.59-0.264,0.587-0.594
			c-0.001-0.336-0.259-0.584-0.596-0.577c-0.337,0.009-0.579,0.265-0.569,0.604C8.986,14.817,9.242,15.069,9.554,15.072z
			 M15.377,13.902c-0.322,0.01-0.557,0.252-0.56,0.576c-0.002,0.33,0.262,0.597,0.588,0.594c0.327-0.003,0.585-0.273,0.579-0.604
			C15.977,14.13,15.719,13.89,15.377,13.902z M13.833,15.989c-0.322-0.004-0.574,0.231-0.588,0.548
			c-0.016,0.333,0.229,0.608,0.559,0.625c0.323,0.017,0.601-0.245,0.608-0.574C14.419,16.252,14.169,15.994,13.833,15.989z
			 M7.178,8.378c0.313-0.009,0.561-0.263,0.566-0.579C7.75,7.466,7.493,7.198,7.166,7.198C6.838,7.196,6.579,7.462,6.581,7.794
			C6.583,8.125,6.853,8.387,7.178,8.378z M10.26,8.377c0.312-0.014,0.555-0.271,0.556-0.588c0-0.332-0.264-0.596-0.59-0.59
			C9.896,7.203,9.644,7.47,9.651,7.805C9.657,8.134,9.933,8.393,10.26,8.377z M13.834,11.153c-0.328-0.002-0.589,0.26-0.589,0.593
			c0,0.315,0.244,0.573,0.557,0.587c0.327,0.015,0.601-0.243,0.608-0.573C14.417,11.427,14.16,11.156,13.834,11.153z M7.198,11.752
			c-0.328-0.02-0.603,0.232-0.617,0.563c-0.015,0.332,0.238,0.606,0.565,0.616s0.595-0.252,0.599-0.583
			C7.748,12.03,7.509,11.77,7.198,11.752z M9.623,16.6c-0.331,0.007-0.581,0.273-0.571,0.607c0.009,0.312,0.267,0.567,0.574,0.571
			c0.323,0.004,0.591-0.267,0.59-0.594C10.215,16.849,9.954,16.593,9.623,16.6z M7.152,17.941c-0.329,0.007-0.583,0.277-0.573,0.609
			c0.009,0.31,0.269,0.566,0.577,0.572c0.325,0.005,0.592-0.264,0.589-0.594C7.743,18.195,7.48,17.935,7.152,17.941z M11.948,18.091
			c-0.317,0.003-0.565,0.247-0.575,0.566c-0.011,0.328,0.249,0.609,0.569,0.614c0.322,0.007,0.595-0.263,0.597-0.59
			C12.542,18.351,12.279,18.089,11.948,18.091z M15.408,18.092c-0.331-0.004-0.591,0.254-0.59,0.589
			c0.001,0.315,0.244,0.573,0.556,0.589c0.322,0.016,0.601-0.247,0.609-0.575C15.99,18.36,15.739,18.096,15.408,18.092z
			 M13.812,8.523c-0.004-0.329-0.276-0.59-0.603-0.579c-0.315,0.011-0.559,0.264-0.563,0.581c-0.004,0.332,0.26,0.602,0.583,0.599
			C13.557,9.123,13.815,8.854,13.812,8.523z M10.754,10.557c-0.327,0-0.585,0.27-0.58,0.602c0.007,0.317,0.254,0.57,0.567,0.578
			c0.327,0.008,0.593-0.252,0.598-0.584C11.343,10.822,11.081,10.554,10.754,10.557z M8.052,9.393C7.718,9.401,7.471,9.663,7.479,10
			c0.007,0.333,0.271,0.574,0.611,0.561c0.321-0.014,0.555-0.259,0.555-0.581C8.643,9.646,8.382,9.386,8.052,9.393z M12.538,14.007
			c-0.325,0.012-0.58,0.29-0.567,0.618c0.011,0.316,0.262,0.556,0.582,0.556c0.338,0.002,0.589-0.252,0.584-0.588
			C13.132,14.262,12.858,13.996,12.538,14.007z M7.146,15.643c-0.001-0.333-0.266-0.596-0.593-0.589
			c-0.325,0.006-0.582,0.281-0.572,0.611c0.009,0.32,0.252,0.558,0.574,0.562C6.892,16.23,7.147,15.977,7.146,15.643z
			 M15.985,10.141c-0.318,0.007-0.561,0.252-0.568,0.572c-0.006,0.34,0.239,0.592,0.578,0.596c0.338,0.001,0.59-0.251,0.588-0.587
			C16.579,10.386,16.318,10.133,15.985,10.141z M11.939,4.451c-0.005-0.333-0.268-0.577-0.606-0.565
			c-0.322,0.012-0.557,0.254-0.559,0.576c-0.003,0.336,0.252,0.59,0.587,0.586C11.698,5.043,11.945,4.789,11.939,4.451z
			 M9.543,5.521C9.549,5.185,9.298,4.93,8.96,4.93c-0.323,0-0.568,0.232-0.582,0.553c-0.015,0.339,0.227,0.6,0.563,0.609
			C9.279,6.101,9.537,5.856,9.543,5.521z M13.828,6.242c0.321,0,0.567-0.235,0.581-0.555c0.014-0.338-0.228-0.599-0.563-0.607
			c-0.34-0.008-0.595,0.235-0.601,0.572C13.239,5.988,13.491,6.243,13.828,6.242z"/>
	</g>
</g>
</svg>
