<?xml version="1.0" encoding="utf-8"?>
<!-- Generator: Adobe Illustrator 16.0.0, SVG Export Plug-In . SVG Version: 6.00 Build 0)  -->
<!DOCTYPE svg PUBLIC "-//W3C//DTD SVG 1.1//EN" "http://www.w3.org/Graphics/SVG/1.1/DTD/svg11.dtd">
<svg version="1.1" id="Layer_1" xmlns="http://www.w3.org/2000/svg" xmlns:xlink="http://www.w3.org/1999/xlink" x="0px" y="0px"
	 width="42px" height="42px" viewBox="0 0 42 42" enable-background="new 0 0 42 42" xml:space="preserve">
<path fill="#FFFFFF" d="M37.893,10.4c-0.929-0.287-1.94-0.184-2.797,0.284c-0.863,0.474-1.494,1.264-1.779,2.224
	c-0.186,0.627-0.205,1.296-0.059,1.937l0.07,0.307l-4.977,2.729l-0.205-0.294c-1.305-1.875-3.323-3.114-5.539-3.399l-0.35-0.046
	V9.625l0.297-0.081c1.598-0.442,2.715-1.933,2.715-3.627c0-2.071-1.646-3.757-3.67-3.757c-2.022,0-3.668,1.686-3.668,3.757
	c0,1.694,1.116,3.186,2.715,3.627l0.296,0.082v4.515l-0.351,0.045c-2.861,0.369-5.322,2.3-6.424,5.04l-0.134,0.334l-5.446-1.503
	v-0.314c0.001-0.657-0.168-1.305-0.486-1.873C7.612,15,6.822,14.377,5.875,14.116c-0.312-0.086-0.633-0.13-0.953-0.13
	c-1.656,0-3.113,1.144-3.544,2.781c-0.256,0.969-0.126,1.981,0.362,2.852c0.489,0.869,1.279,1.492,2.226,1.752
	C4.904,21.63,5.91,21.496,6.751,21c0.555-0.327,1.018-0.8,1.339-1.368l0.154-0.273l5.446,1.503l-0.047,0.357
	c-0.051,0.383-0.078,0.762-0.078,1.127c0,1.838,0.584,3.581,1.689,5.036l0.216,0.286l-3.993,4.087l-0.266-0.153
	c-0.553-0.33-1.187-0.502-1.831-0.502c-0.979,0-1.898,0.39-2.589,1.098c-0.692,0.707-1.072,1.65-1.072,2.656
	c0,1.004,0.38,1.946,1.072,2.656c0.692,0.708,1.613,1.098,2.594,1.098c0.982,0,1.903-0.39,2.595-1.098
	c1.168-1.197,1.408-3.059,0.583-4.527l-0.152-0.272l3.993-4.088l0.279,0.221c1.422,1.134,3.123,1.729,4.918,1.729
	c1.795,0,3.496-0.598,4.918-1.729l0.278-0.221l3.994,4.088l-0.153,0.272c-0.824,1.47-0.584,3.33,0.584,4.527
	c0.689,0.708,1.611,1.098,2.594,1.098c0.98,0,1.902-0.39,2.594-1.098c1.432-1.465,1.432-3.85,0-5.313
	c-0.688-0.708-1.608-1.098-2.587-1.098c-0.644,0-1.279,0.174-1.835,0.502l-0.266,0.154l-3.994-4.088l0.219-0.286
	c1.104-1.455,1.688-3.198,1.688-5.036c0-1.01-0.18-1.999-0.533-2.941l-0.127-0.337l4.976-2.728l0.21,0.229
	c0.438,0.479,0.994,0.833,1.607,1.023c0.926,0.287,1.938,0.185,2.795-0.284c0.862-0.474,1.494-1.263,1.778-2.224
	c0.284-0.96,0.187-1.977-0.278-2.862C39.602,11.337,38.829,10.691,37.893,10.4z M7.192,18.37c-0.276,1.05-1.21,1.783-2.271,1.783
	c-0.207,0-0.412-0.028-0.612-0.084c-0.607-0.167-1.114-0.566-1.427-1.125c-0.314-0.557-0.396-1.207-0.233-1.828
	c0.277-1.05,1.21-1.782,2.273-1.782c0.205,0,0.411,0.027,0.611,0.083c0.606,0.167,1.113,0.567,1.427,1.124
	C7.274,17.1,7.357,17.749,7.192,18.37z M11.049,36.557c-0.443,0.453-1.034,0.703-1.664,0.703c-0.629,0-1.219-0.25-1.664-0.703
	c-0.917-0.938-0.917-2.469,0-3.408c0.444-0.453,1.035-0.705,1.664-0.705c0.63,0,1.221,0.252,1.664,0.705
	C11.966,34.088,11.966,35.617,11.049,36.557z M32.152,33.148c0.443-0.455,1.033-0.705,1.664-0.705c0.629,0,1.219,0.25,1.662,0.705
	s0.688,1.06,0.688,1.703c0,0.643-0.244,1.25-0.688,1.703c-0.443,0.454-1.033,0.704-1.662,0.704c-0.631,0-1.221-0.25-1.664-0.704
	c-0.444-0.453-0.688-1.061-0.688-1.703C31.464,34.208,31.708,33.604,32.152,33.148z M19.247,5.917c0-1.329,1.056-2.41,2.354-2.41
	c1.297,0,2.354,1.081,2.354,2.41c0,1.328-1.057,2.409-2.354,2.409C20.303,8.326,19.247,7.245,19.247,5.917z M21.602,29.225
	c-3.706,0-6.719-3.086-6.719-6.881c0-3.792,3.013-6.877,6.719-6.877c3.703,0,6.717,3.085,6.717,6.877
	C28.316,26.139,25.305,29.225,21.602,29.225z M39.082,14.693c-0.182,0.617-0.589,1.123-1.143,1.427
	c-0.342,0.187-0.725,0.286-1.107,0.286c-0.23,0-0.46-0.035-0.686-0.104c-0.601-0.186-1.095-0.601-1.393-1.168
	c-0.297-0.567-0.359-1.219-0.178-1.834c0.182-0.616,0.587-1.123,1.142-1.426c0.548-0.3,1.198-0.365,1.794-0.182
	c0.6,0.186,1.096,0.601,1.391,1.168C39.199,13.425,39.262,14.077,39.082,14.693z"/>
</svg>
